<svg width="190" height="130" viewBox="0 0 190 130" fill="none" xmlns="http://www.w3.org/2000/svg">
<path d="M103.267 68.1732C103.184 68.197 102.874 68.197 102.731 68.197H92.4943V70.5777H102.91C102.993 70.5777 103.6 70.5777 103.719 70.5539C105.838 70.3515 106.814 68.5898 106.814 67.0424C106.814 65.4949 105.802 63.7451 103.874 63.5666C103.493 63.5309 103.184 63.5309 103.041 63.5309H96.232C95.9344 63.5309 95.6011 63.5071 95.482 63.4714C94.9464 63.3285 94.744 62.8524 94.744 62.4596C94.744 62.1025 94.9464 61.6264 95.494 61.4716C95.6487 61.4359 95.8273 61.4121 96.2082 61.4121H106.028V59.0671H96.0535C95.6368 59.0671 95.3154 59.0909 95.0655 59.1267C93.3633 59.3647 92.173 60.7336 92.173 62.4834C92.173 63.9118 93.0657 65.5783 95.0297 65.852C95.3868 65.8877 95.8868 65.8877 96.101 65.8877H102.731C102.85 65.8877 103.148 65.8877 103.207 65.9116C103.957 66.0068 104.219 66.5662 104.219 67.0662C104.219 67.5661 103.922 68.0541 103.267 68.1732Z" fill="white"/>
<path d="M83.8644 68.1732C83.781 68.197 83.4716 68.197 83.3525 68.197H73.0919V70.5777H83.5073C83.5906 70.5777 84.1977 70.5777 84.3167 70.5539C86.4355 70.3515 87.4116 68.5898 87.4116 67.0424C87.4116 65.4949 86.3998 63.7451 84.4715 63.5666C84.0905 63.5309 83.781 63.5309 83.6382 63.5309H76.8295C76.5319 63.5309 76.1986 63.5071 76.0796 63.4714C75.544 63.3285 75.3416 62.8524 75.3416 62.4596C75.3416 62.1025 75.544 61.6264 76.0915 61.4716C76.2463 61.4359 76.4248 61.4121 76.8057 61.4121H86.626V59.0671H76.6509C76.2343 59.0671 75.913 59.0909 75.663 59.1267C73.9608 59.3647 72.7705 60.7336 72.7705 62.4834C72.7705 63.9118 73.6632 65.5783 75.6273 65.852C75.9844 65.8877 76.4843 65.8877 76.6986 65.8877H83.3288C83.4478 65.8877 83.7454 65.8877 83.8049 65.9116C84.5548 66.0068 84.8167 66.5662 84.8167 67.0662C84.8167 67.5661 84.5429 68.0541 83.8644 68.1732Z" fill="white"/>
<path d="M67.7592 58.9838H65.1762V70.6253H67.7592V58.9838Z" fill="white"/>
<path d="M59.4863 70.6372V58.9838H56.9033V67.6852L48.3091 58.9838H45V70.6372H47.583V61.912L56.2248 70.6372H59.4863Z" fill="white"/>
<path d="M142.441 58.9838V67.6852L133.847 58.9838H130.537V70.6372H133.109V61.912L141.738 70.6372H145V58.9838H142.441Z" fill="white"/>
<path d="M117.099 58.9838L109.837 70.6253H112.968L114.254 68.5422H122.729L124.014 70.6253H127.133L119.872 58.9838H117.099ZM121.408 66.3401H115.599L118.515 61.6621L121.408 66.3401Z" fill="white"/>
<path d="M59.3435 52.3775C64.5453 37.2007 78.865 26.9995 95.0179 26.9995C111.171 26.9995 125.514 37.2007 130.692 52.3775L130.728 52.4965H142.096V51.1276L137.37 50.5681C134.454 50.2349 133.835 48.9374 133.049 47.3185L132.847 46.9257C126.026 32.4036 111.159 23 95.006 23C78.8531 23 63.9977 32.4036 57.1652 46.9733L56.9628 47.3661C56.1653 48.9969 55.5582 50.2825 52.6419 50.6158L47.9163 51.1752V52.5441H59.2602L59.3197 52.3894L59.3435 52.3775Z" fill="white"/>
<path d="M130.728 77.1483L130.692 77.2673C125.49 92.4441 111.171 102.621 95.0179 102.621C78.865 102.621 64.5215 92.4203 59.3435 77.2435L59.3078 77.1245H47.9639V78.4934L52.6895 79.0528C55.6058 79.3861 56.2248 80.6836 57.0104 82.3025L57.2128 82.6953C64.0335 97.253 78.9007 106.669 95.0535 106.669C111.206 106.669 126.062 97.265 132.894 82.7191L133.097 82.3263C133.894 80.6955 134.501 79.4099 137.418 79.0766L142.143 78.5172V77.1483H130.728Z" fill="white"/>
</svg>
